<svg width="38.474" height="10.737" viewBox="0 0 38.474 10.737" xmlns="http://www.w3.org/2000/svg"><g id="svgGroup" stroke-linecap="round" fill-rule="evenodd" font-size="9pt" stroke="#000" stroke-width="0.25mm" fill="#000" style="stroke:#000;stroke-width:0.25mm;fill:#000"><path d="M 0 0.073 L 0 10.737 L 1.333 10.737 L 1.333 3.047 A 15.715 15.715 0 0 0 1.331 2.821 Q 1.33 2.702 1.326 2.57 A 25.53 25.53 0 0 0 1.326 2.552 Q 1.318 2.278 1.289 2.058 L 1.348 2.058 A 3.714 3.714 0 0 0 1.395 2.261 Q 1.421 2.364 1.456 2.476 A 6.308 6.308 0 0 0 1.479 2.552 A 8.642 8.642 0 0 0 1.567 2.813 A 6.427 6.427 0 0 0 1.655 3.047 L 4.688 10.737 L 5.903 10.737 L 8.936 3.047 A 6.427 6.427 0 0 0 9.023 2.813 A 8.642 8.642 0 0 0 9.111 2.552 A 5.682 5.682 0 0 0 9.18 2.323 Q 9.211 2.208 9.233 2.105 A 3.247 3.247 0 0 0 9.243 2.058 L 9.302 2.058 A 4.013 4.013 0 0 0 9.278 2.292 Q 9.269 2.415 9.265 2.552 A 22.187 22.187 0 0 0 9.26 2.806 Q 9.258 2.926 9.258 3.033 A 13.357 13.357 0 0 0 9.258 3.047 L 9.258 10.737 L 10.62 10.737 L 10.62 0.073 L 8.804 0.073 L 5.64 8.093 A 7.138 7.138 0 0 0 5.48 8.536 A 7.71 7.71 0 0 0 5.475 8.551 A 9.557 9.557 0 0 0 5.37 8.896 A 8.275 8.275 0 0 0 5.339 9.009 L 5.281 9.009 A 8.891 8.891 0 0 0 5.183 8.669 A 10.249 10.249 0 0 0 5.145 8.551 A 7.175 7.175 0 0 0 4.986 8.107 A 6.773 6.773 0 0 0 4.98 8.093 L 1.816 0.073 L 0 0.073 Z M 30.286 0.073 L 30.286 10.737 L 31.692 10.737 L 31.692 5.815 L 37.068 5.815 L 37.068 10.737 L 38.474 10.737 L 38.474 0.073 L 37.068 0.073 L 37.068 4.658 L 31.692 4.658 L 31.692 0.073 L 30.286 0.073 Z M 16.055 0 L 11.997 10.737 L 13.403 10.737 L 16.362 2.681 A 7.699 7.699 0 0 0 16.482 2.326 A 6.784 6.784 0 0 0 16.516 2.212 A 6.573 6.573 0 0 0 16.633 1.743 L 16.707 1.743 A 6.573 6.573 0 0 0 16.824 2.212 A 7.228 7.228 0 0 0 16.935 2.561 A 8.195 8.195 0 0 0 16.978 2.681 L 19.907 10.737 L 21.372 10.737 L 17.314 0 L 16.055 0 Z M 20.603 0.073 L 20.603 1.23 L 24.031 1.23 L 24.031 10.737 L 25.437 10.737 L 25.437 1.23 L 28.865 1.23 L 28.865 0.073 L 20.603 0.073 Z M 14.172 6.797 L 13.74 7.954 L 19.607 7.954 L 19.182 6.797 L 14.172 6.797 Z" vector-effect="non-scaling-stroke"/></g></svg>